<svg height="496pt" viewBox="0 0 496 496" width="496pt" xmlns="http://www.w3.org/2000/svg"><path d="m248 152c4.574219 0 9.0625.769531 13.328125 2.28125l5.34375-15.082031c-5.984375-2.121094-12.265625-3.199219-18.671875-3.199219zm0 0"/><path d="m285.335938 150.296875-10.671876 11.910156c8.480469 7.601563 13.335938 18.457031 13.335938 29.792969h16c0-15.871094-6.808594-31.078125-18.664062-41.703125zm0 0"/><path d="m176 336h144v-48h-144zm16-32h112v16h-112zm0 0"/><path d="m240 64h16v16h-16zm0 0"/><path d="m272 64h16v16h-16zm0 0"/><path d="m208 64h16v16h-16zm0 0"/><path d="m248 0c-136.753906 0-248 111.257812-248 248 0 136.753906 111.246094 248 248 248s248-111.246094 248-248c0-136.742188-111.246094-248-248-248zm0 16c127.921875 0 232 104.070312 232 232 0 42.808594-11.695312 82.910156-32 117.367188v-101.367188c0-10.414062-6.710938-19.214844-16-22.527344v-41.472656c0-13.230469-10.769531-24-24-24h-16c0-79.398438-64.601562-144-144-144s-144 64.601562-144 144h-16c-13.230469 0-24 10.769531-24 24v41.472656c-9.289062 3.3125-16 12.113282-16 22.527344v101.367188c-20.304688-34.457032-32-74.558594-32-117.367188 0-127.929688 104.078125-232 232-232zm-128 217.71875v6.28125h-40v-40c0-4.40625 3.585938-8 8-8h17.542969c2.871093 15.679688 9.226562 30.152344 14.457031 41.71875zm296 6.28125h-40v-6.28125c5.230469-11.566406 11.585938-26.039062 14.457031-41.71875h17.542969c4.414062 0 8 3.59375 8 8zm-58.59375-130.097656c6.363281 10.488281 11.234375 21.929687 14.386719 34.097656h-11.808594c-.230469-10.351562-2.425781-20.679688-6.398437-30.265625zm-20.566406 5.671875c4.679687 9.371093 7.160156 19.851562 7.160156 30.3125v14.113281h30.886719c.664062 5.257812 1.113281 10.566406 1.113281 16 0 17.015625-6.839844 33.847656-13.167969 48h-33.015625c4-10.191406 6.175782-21.039062 6.175782-32 0-26.550781-11.871094-50.335938-30.519532-66.488281l19.367188-51.640625c8.6875 6.5625 16.542968 14.136718 23.3125 22.65625l-13.886719 13.886718zm-153.105469 108.425781c-4.972656-9.96875-7.734375-20.902344-7.734375-32 0-39.695312 32.296875-72 72-72s72 32.304688 72 72c0 11.097656-2.761719 22.03125-7.734375 32zm108.257813-108.097656c-12.960938-7.527344-27.960938-11.902344-43.992188-11.902344s-31.03125 4.375-43.992188 11.902344l-19.160156-51.09375c18.65625-10.640625 40.183594-16.808594 63.152344-16.808594s44.496094 6.167969 63.152344 16.808594zm-120.832032-42.03125 19.367188 51.640625c-18.65625 16.152343-30.527344 39.9375-30.527344 66.488281 0 10.960938 2.175781 21.808594 6.175781 32h-33.015625c-6.320312-14.152344-13.160156-30.984375-13.160156-48 0-5.433594.449219-10.742188 1.113281-16h30.886719v-14.113281c0-10.460938 2.480469-20.941407 7.160156-30.3125l2.574219-5.160157-13.886719-13.886718c6.769532-8.511719 14.617188-16.09375 23.3125-22.65625zm-32.566406 36.03125 3.832031 3.832031c-3.976562 9.585937-6.167969 19.914063-6.402343 30.265625h-11.808594c3.144531-12.167969 8.015625-23.609375 14.378906-34.097656zm-66.59375 146.097656h48v2.800781l-38.742188 17.214844c-6.625 2.945313-12.378906 7.167969-17.257812 12.183594v-24.199219c0-4.414062 3.585938-8 8-8zm64 0v-16h224v16h-32v16h28l-33.335938 80h-149.328124l-33.335938-80h172v-16zm240 0h48c4.414062 0 8 3.585938 8 8v24.199219c-4.878906-5.007813-10.632812-9.238281-17.257812-12.183594l-38.742188-17.214844zm-200 212.503906v-68.503906h144v68.503906c-22.679688 7.425782-46.871094 11.496094-72 11.496094s-49.320312-4.070312-72-11.496094zm208-32.71875v-99.785156h-16v110.480469c-10.175781 6.175781-20.878906 11.550781-32 16.128906v-78.609375h-176v78.617188c-11.121094-4.578126-21.824219-9.953126-32-16.128907v-110.488281h-16v99.785156c-18.160156-13.191406-34.335938-28.929687-48-46.714844v-61.871093c0-15.800781 9.328125-30.144531 23.761719-36.550781l36.007812-16 38.894531 93.351562h170.671876l38.894531-93.359375 36.007812 16c14.433594 6.414063 23.761719 20.757813 23.761719 36.550781v61.871094c-13.664062 17.792969-29.839844 33.53125-48 46.722656zm0 0"/></svg>