<svg xmlns="http://www.w3.org/2000/svg" viewBox="0 0 14 14" width="14" height="14">
	<style>
		tspan { white-space:pre }
		.shp0 { fill: #000000 } 
	</style>
	<g id="footer">
		<g id="Social">
			<path id="Layer 253" class="shp0" d="M7.01 0.01C3.14 0.01 0.01 3.14 0.01 7C0.01 10.86 3.14 13.99 7.01 13.99C10.87 13.99 14.01 10.86 14.01 7C14.01 3.14 10.87 0.01 7.01 0.01ZM11.45 3.23C12.24 4.15 12.74 5.33 12.82 6.61C11.56 6.54 10.05 6.55 8.84 6.66C8.69 6.27 8.53 5.89 8.36 5.53C9.76 4.93 10.84 4.13 11.45 3.23ZM7.01 1.17C8.42 1.17 9.72 1.68 10.73 2.51C10.1 3.32 9.1 4.01 7.86 4.54C7.18 3.29 6.4 2.21 5.57 1.36C6.03 1.24 6.51 1.17 7.01 1.17ZM4.37 1.81C5.21 2.64 6 3.71 6.69 4.96C5.38 5.36 3.87 5.59 2.26 5.59C1.95 5.59 1.65 5.58 1.36 5.56C1.78 3.92 2.89 2.56 4.37 1.81ZM1.18 6.72C1.52 6.74 1.85 6.74 2.19 6.74C4.03 6.71 5.74 6.43 7.21 5.96C7.35 6.25 7.48 6.54 7.6 6.84C7.4 6.89 7.22 6.94 7.08 7C5.07 7.84 3.49 9.2 2.63 10.84C1.73 9.82 1.17 8.47 1.17 7C1.17 6.91 1.18 6.81 1.18 6.72ZM7.01 12.83C5.66 12.83 4.42 12.36 3.43 11.6C4.21 10.06 5.59 8.79 7.34 8C7.51 7.92 7.73 7.86 7.98 7.81C8.18 8.38 8.37 8.98 8.53 9.6C8.79 10.57 8.96 11.52 9.07 12.44C8.43 12.69 7.74 12.83 7.01 12.83ZM10.16 11.9C10.05 10.96 9.87 10 9.62 9.02C9.49 8.55 9.35 8.09 9.2 7.64C10.34 7.55 11.72 7.56 12.8 7.64C12.61 9.43 11.6 10.97 10.16 11.9Z" />
		</g>
	</g>
</svg>