<?xml version="1.0" encoding="iso-8859-1"?>
<!-- Generator: Adobe Illustrator 19.0.0, SVG Export Plug-In . SVG Version: 6.00 Build 0)  -->
<svg version="1.1" id="Capa_1" xmlns="http://www.w3.org/2000/svg" xmlns:xlink="http://www.w3.org/1999/xlink" x="0px" y="0px"
	 viewBox="0 0 60 60" style="enable-background:new 0 0 60 60;" xml:space="preserve">
<g>
	<circle cx="6.5" cy="7" r="2"/>
	<circle cx="12.5" cy="7" r="2"/>
	<circle cx="18.5" cy="7" r="2"/>
	<path d="M0.5,0v14v46h59V14V0H0.5z M2.5,2h55v10h-55V2z M57.5,58h-55V14h55V58z"/>
	<path d="M54.5,19h-15v12h15V19z M52.5,29h-11v-8h11V29z"/>
	<path d="M20.5,19h-15v12h15V19z M18.5,29h-11v-8h11V29z"/>
	<path d="M37.5,19h-15v12h15V19z M35.5,29h-11v-8h11V29z"/>
	<path d="M54.5,33h-15v12h15V33z M52.5,43h-11v-8h11V43z"/>
	<path d="M20.5,45V33h-15v12H20.5z M7.5,35h11v8h-11V35z"/>
	<path d="M37.5,33h-15v12h15V33z M35.5,43h-11v-8h11V43z"/>
	<path d="M45.5,4h-18c-1.654,0-3,1.346-3,3s1.346,3,3,3h18c1.654,0,3-1.346,3-3S47.154,4,45.5,4z M45.5,8h-18c-0.551,0-1-0.448-1-1
		s0.449-1,1-1h18c0.551,0,1,0.448,1,1S46.051,8,45.5,8z"/>
</g>
<g>
</g>
<g>
</g>
<g>
</g>
<g>
</g>
<g>
</g>
<g>
</g>
<g>
</g>
<g>
</g>
<g>
</g>
<g>
</g>
<g>
</g>
<g>
</g>
<g>
</g>
<g>
</g>
<g>
</g>
</svg>
