<svg id="Capa_1" enable-background="new 0 0 512 512" height="512" viewBox="0 0 512 512" width="512" xmlns="http://www.w3.org/2000/svg"><g><path d="m201 160v15c0 8.284 6.716 15 15 15h30c35.841 0 65-29.159 65-65v-60c0-35.841-29.159-65-65-65h-30c-8.284 0-15 6.716-15 15v15h-30v-15c0-8.284-6.716-15-15-15h-40c-41.355 0-75 33.645-75 75v230c0 19.555 12.541 36.228 30 42.42v149.58c0 8.284 6.716 15 15 15s15-6.716 15-15v-149.58c17.459-6.192 30-22.865 30-42.42v-115h25c8.284 0 15-6.716 15-15v-15zm30-130h15c19.299 0 35 15.701 35 35v60c0 19.299-15.701 35-35 35h-15zm-30 30v70h-30v-70zm-115 260c-8.271 0-15-6.729-15-15v-15h30v15c0 8.271-6.729 15-15 15zm55-160h-25c-8.284 0-15 6.716-15 15v85h-30v-185c0-24.813 20.187-45 45-45h25z"/><path d="m441 164.58v-149.58c0-8.284-6.716-15-15-15s-15 6.716-15 15v149.58c-17.459 6.192-30 22.865-30 42.42v115h-25c-8.284 0-15 6.716-15 15v15h-30v-15c0-8.284-6.716-15-15-15h-30c-35.841 0-65 29.159-65 65v60c0 35.841 29.159 65 65 65h30c8.284 0 15-6.716 15-15v-15h30v15c0 8.284 6.716 15 15 15h40c41.355 0 75-33.645 75-75v-230c0-19.555-12.541-36.228-30-42.42zm-15 27.42c8.271 0 15 6.729 15 15v15h-30v-15c0-8.271 6.729-15 15-15zm-145 290h-15c-19.299 0-35-15.701-35-35v-60c0-19.299 15.701-35 35-35h15zm30-30v-70h30v70zm85 30h-25v-130h25c8.284 0 15-6.716 15-15v-85h30v185c0 24.813-20.187 45-45 45z"/></g></svg>