<svg xmlns="http://www.w3.org/2000/svg" viewBox="0 0 55 47" width="55" height="47">
	<style>
		tspan { white-space:pre }
		.shp0 { fill: #c79d27 } 
	</style>
	<g id="Services">
		<g id="Group 39 copy">
			<g id="about">
				<g id="Mature project copy">
					<path id="Rescue support" class="shp0" d="M49.03 16.01L47.73 16.01C45.24 6.79 37.18 0.08 27.5 0.08C17.87 0.08 9.92 6.64 7.4 15.86L5.99 15.86C3.09 15.86 0.73 18.22 0.73 21.12L0.73 27.03C0.73 29.94 3.09 32.3 5.99 32.3L7.14 32.3C8.53 38.68 13.16 43.16 20.01 43.16L21.37 43.16C21.58 44.83 23.04 46.68 25.29 46.73L30.17 46.73C32.59 46.73 34.3 44.77 34.3 42.36C34.3 39.95 32.59 38.13 30.17 38.13L25.29 38.13C23.49 38.13 21.88 39.53 21.37 41.7L20.01 41.7C12.81 41.7 8.5 36.13 8.5 30.59L8.5 17.76C10.27 9.49 16.22 1.6 27.5 1.6C35.98 1.6 44.89 7.48 46.47 17.75L46.47 30.69C46.47 31.63 47.23 32.4 48.17 32.4L49.03 32.4C51.93 32.4 54.29 30.03 54.29 27.13L54.29 21.27C54.29 18.37 51.93 16.01 49.03 16.01ZM24.91 39.53L30.6 39.53C31.47 39.53 32.87 40.83 32.87 42.44C32.87 44.04 31.47 45.34 30.6 45.34L24.91 45.34C24.05 45.34 22.74 44.04 22.74 42.44C22.74 40.83 24.04 39.53 24.91 39.53ZM2.09 27.08L2.09 21.02C2.09 20.01 2.87 17.28 5.99 17.28L7.13 17.28L7.13 30.93L5.99 30.93C4.97 30.93 2.09 30.15 2.09 27.08ZM52.94 27.6C52.94 29.06 51.5 30.94 48.75 31.04L47.92 31.04L47.92 17.36L48.75 17.36C51.6 17.36 52.94 19.54 52.94 21L52.94 27.6Z" />
				</g>
			</g>
		</g>
	</g>
</svg>