<svg height="512" viewBox="0 0 512 512" width="512" xmlns="http://www.w3.org/2000/svg"><path d="m503.97 253.87c.01-.06.01-.12.02-.19 0-.16-.02-.32-.02-.48a247.96 247.96 0 0 0 -245.13-245.17c-.18 0-.35-.02-.52-.02-.07.01-.13.01-.19.02-.71-.01-1.42-.03-2.13-.03a248.008 248.008 0 0 0 -248 248c0 .71.02 1.42.03 2.13-.01.06-.01.12-.02.19 0 .16.02.32.02.48a247.959 247.959 0 0 0 245.19 245.17c.13 0 .25.02.38.02h.08c.07-.01.13-.01.19-.02.71.01 1.42.03 2.13.03a248.008 248.008 0 0 0 248-248c0-.71-.02-1.42-.03-2.13zm-16.21-8.21a245.818 245.818 0 0 0 -163.78 67.01l-56.67-56.67 158.29-158.28a230.116 230.116 0 0 1 62.16 147.94zm-221.43-221.42a230.142 230.142 0 0 1 147.95 62.16l-158.28 158.29-56.67-56.67a245.808 245.808 0 0 0 67-163.78zm-16-.17a229.96 229.96 0 0 1 -62.32 152.63l-90.29-90.3a230.191 230.191 0 0 1 152.61-62.33zm-163.93 73.65 90.3 90.29a229.97 229.97 0 0 1 -152.63 62.33 230.216 230.216 0 0 1 62.33-152.62zm-62.16 168.62a245.867 245.867 0 0 0 163.78-67.01l56.67 56.67-158.29 158.28a230.116 230.116 0 0 1 -62.16-147.94zm221.43 221.42a230.142 230.142 0 0 1 -147.95-62.16l158.28-158.29 56.67 56.67a245.808 245.808 0 0 0 -67 163.78zm16 .17a229.96 229.96 0 0 1 62.32-152.63l90.29 90.3a230.191 230.191 0 0 1 -152.61 62.33zm163.93-73.65-90.3-90.29a229.97 229.97 0 0 1 152.63-62.33 230.216 230.216 0 0 1 -62.33 152.62z"/></svg>