<svg xmlns="http://www.w3.org/2000/svg" viewBox="0 0 12 12" width="12" height="12">
	<style>
		tspan { white-space:pre }
		.shp0 { fill: #000000 } 
	</style>
	<g id="footer">
		<g id="Social">
			<path id="Layer 252" class="shp0" d="M2.73 12L2.73 3.91L0.16 3.91L0.16 12L2.73 12L2.73 12ZM1.44 2.8C2.34 2.8 2.9 2.18 2.9 1.41C2.88 0.61 2.34 0.01 1.46 0.01C0.58 0.01 0.01 0.61 0.01 1.41C0.01 2.18 0.56 2.8 1.43 2.8L1.44 2.8L1.44 2.8ZM4.15 12L6.73 12L6.73 7.48C6.73 7.24 6.74 7 6.81 6.83C7 6.34 7.42 5.84 8.13 5.84C9.06 5.84 9.43 6.59 9.43 7.67L9.43 12L12.01 12L12.01 7.36C12.01 4.88 10.74 3.72 9.04 3.72C7.66 3.72 7.05 4.53 6.71 5.08L6.73 5.08L6.73 3.91L4.15 3.91C4.19 4.67 4.15 12 4.15 12L4.15 12Z" />
		</g>
	</g>
</svg>