<svg xmlns="http://www.w3.org/2000/svg" viewBox="0 0 15 11" width="15" height="11">
	<style>
		tspan { white-space:pre }
		.shp0 { fill: #000000 } 
	</style>
	<g id="footer">
		<g id="Social">
			<path id="Layer 254" class="shp0" d="M15 1.3C14.48 1.52 13.93 1.67 13.35 1.73C13.94 1.39 14.4 0.85 14.61 0.2C14.06 0.51 13.44 0.75 12.79 0.87C12.27 0.33 11.52 -0.01 10.69 -0.01C9.11 -0.01 7.82 1.24 7.82 2.77C7.82 2.99 7.85 3.2 7.89 3.4C5.51 3.29 3.39 2.18 1.97 0.5C1.73 0.91 1.59 1.39 1.59 1.9C1.59 2.86 2.09 3.71 2.86 4.21C2.39 4.2 1.95 4.07 1.56 3.86C1.56 3.87 1.56 3.89 1.56 3.9C1.56 5.24 2.55 6.37 3.87 6.62C3.62 6.69 3.37 6.72 3.11 6.72C2.92 6.72 2.74 6.7 2.57 6.67C2.93 7.77 4 8.58 5.25 8.6C4.27 9.34 3.03 9.79 1.68 9.79C1.45 9.79 1.22 9.77 1 9.75C2.27 10.54 3.78 11 5.4 11C10.69 11 13.57 6.76 13.57 3.09C13.57 2.97 13.57 2.85 13.57 2.73C14.13 2.34 14.61 1.85 15 1.3Z" />
		</g>
	</g>
</svg>